<?xml version="1.0" standalone="no"?>
<!DOCTYPE svg PUBLIC "-//W3C//DTD SVG 20010904//EN"
 "http://www.w3.org/TR/2001/REC-SVG-20010904/DTD/svg10.dtd">
<svg version="1.0" xmlns="http://www.w3.org/2000/svg"
 width="16.000000pt" height="16.000000pt" viewBox="0 0 16.000000 16.000000"
 preserveAspectRatio="xMidYMid meet">

<g transform="translate(0.000000,16.000000) scale(0.100000,-0.100000)"
fill="#000000" stroke="none">
<path d="M70 140 c0 -5 -9 -10 -19 -10 -28 0 -37 -21 -16 -36 16 -12 17 -14 2
-20 -26 -10 -20 -34 8 -34 14 0 25 -6 25 -12 0 -8 3 -9 8 -3 4 6 21 18 37 27
32 18 46 48 22 48 -8 0 -20 7 -27 15 -7 8 -16 12 -21 9 -5 -3 -9 -1 -9 5 0 5
6 12 13 14 7 3 5 6 -5 6 -10 1 -18 -3 -18 -9z m-20 -24 c0 -3 -4 -8 -10 -11
-5 -3 -10 -1 -10 4 0 6 5 11 10 11 6 0 10 -2 10 -4z m60 -16 c0 -10 -38 -1
-45 10 -2 4 7 5 20 2 14 -2 25 -8 25 -12z m-30 -29 c-4 -9 -17 -17 -29 -18
-18 -2 -19 -1 -3 16 22 22 44 24 32 2z m30 -6 c-7 -9 -15 -13 -17 -11 -7 7 7
26 19 26 6 0 6 -6 -2 -15z"/>
</g>
</svg>
